<?xml version="1.0" encoding="UTF-8" standalone="no"?><!DOCTYPE svg PUBLIC "-//W3C//DTD SVG 1.1//EN" "http://www.w3.org/Graphics/SVG/1.1/DTD/svg11.dtd"><!-- Generated by graphviz version 2.40.1 (20161225.0304)
 --><!-- Title: G Pages: 1 --><svg xmlns="http://www.w3.org/2000/svg" xmlns:xlink="http://www.w3.org/1999/xlink" width="316pt" height="260pt" viewBox="0.00 0.00 316.00 260.00">
<g id="graph0" class="graph" transform="scale(1 1) rotate(0) translate(4 256)">
<title>G</title>
<polygon fill="#ffffff" stroke="transparent" points="-4,4 -4,-256 312,-256 312,4 -4,4"/>
<g id="clust1" class="cluster">
<title>cluster_0</title>
</g>
<g id="clust2" class="cluster">
<title>cluster_1</title>
</g>
<!-- A -->
<g id="node1" class="node">
<title>A</title>
<ellipse fill="none" stroke="#000000" cx="154" cy="-234" rx="27" ry="18"/>
<text text-anchor="middle" x="154" y="-229.8" font-family="Times,serif" font-size="14.00" fill="#000000">A</text>
</g>
<!-- B -->
<g id="node2" class="node">
<title>B</title>
<ellipse fill="none" stroke="#000000" cx="115" cy="-162" rx="27" ry="18"/>
<text text-anchor="middle" x="115" y="-157.8" font-family="Times,serif" font-size="14.00" fill="#000000">B</text>
</g>
<!-- A&#45;&gt;B -->
<g id="edge1" class="edge">
<title>A-&gt;B</title>
<path fill="none" stroke="#000000" d="M144.7575,-216.937C140.0463,-208.2393 134.2183,-197.4799 128.9722,-187.7948"/>
<polygon fill="#000000" stroke="#000000" points="132.0165,-186.0664 124.1761,-178.9405 125.8615,-189.4005 132.0165,-186.0664"/>
</g>
<!-- D -->
<g id="node5" class="node">
<title>D</title>
<ellipse fill="none" stroke="#000000" cx="193" cy="-162" rx="27" ry="18"/>
<text text-anchor="middle" x="193" y="-157.8" font-family="Times,serif" font-size="14.00" fill="#000000">D</text>
</g>
<!-- A&#45;&gt;D -->
<g id="edge4" class="edge">
<title>A-&gt;D</title>
<path fill="none" stroke="#000000" d="M163.2425,-216.937C167.9537,-208.2393 173.7817,-197.4799 179.0278,-187.7948"/>
<polygon fill="#000000" stroke="#000000" points="182.1385,-189.4005 183.8239,-178.9405 175.9835,-186.0664 182.1385,-189.4005"/>
</g>
<!-- CL -->
<g id="node3" class="node">
<title>CL</title>
<ellipse fill="none" stroke="#000000" cx="43" cy="-90" rx="27" ry="18"/>
<text text-anchor="middle" x="43" y="-85.8" font-family="Times,serif" font-size="14.00" fill="#000000">CL</text>
</g>
<!-- B&#45;&gt;CL -->
<g id="edge2" class="edge">
<title>B-&gt;CL</title>
<path fill="none" stroke="#000000" d="M99.7307,-146.7307C89.803,-136.803 76.6847,-123.6847 65.5637,-112.5637"/>
<polygon fill="#000000" stroke="#000000" points="67.7933,-109.8436 58.2473,-105.2473 62.8436,-114.7933 67.7933,-109.8436"/>
</g>
<!-- CH -->
<g id="node4" class="node">
<title>CH</title>
<ellipse fill="none" stroke="#000000" cx="115" cy="-90" rx="27" ry="18"/>
<text text-anchor="middle" x="115" y="-85.8" font-family="Times,serif" font-size="14.00" fill="#000000">CH</text>
</g>
<!-- B&#45;&gt;CH -->
<g id="edge3" class="edge">
<title>B-&gt;CH</title>
<path fill="none" stroke="#000000" d="M115,-143.8314C115,-136.131 115,-126.9743 115,-118.4166"/>
<polygon fill="#000000" stroke="#000000" points="118.5001,-118.4132 115,-108.4133 111.5001,-118.4133 118.5001,-118.4132"/>
</g>
<!-- F1 -->
<g id="node8" class="node">
<title>F1</title>
<ellipse fill="none" stroke="#000000" cx="192" cy="-18" rx="27" ry="18"/>
<text text-anchor="middle" x="192" y="-13.8" font-family="Times,serif" font-size="14.00" fill="#000000">F1</text>
</g>
<!-- CL&#45;&gt;F1 -->
<g id="edge7" class="edge">
<title>CL-&gt;F1</title>
<path fill="none" stroke="#000000" d="M60.3183,-76.0337C66.0502,-71.8159 72.6031,-67.4058 79,-64 110.7745,-47.083 121.8849,-50.1136 155,-36 157.0289,-35.1353 159.1067,-34.2173 161.1919,-33.2715"/>
<polygon fill="#000000" stroke="#000000" points="162.6837,-36.4378 170.2541,-29.0257 159.7138,-30.099 162.6837,-36.4378"/>
</g>
<!-- F2 -->
<g id="node9" class="node">
<title>F2</title>
<ellipse fill="none" stroke="#000000" cx="46" cy="-18" rx="27" ry="18"/>
<text text-anchor="middle" x="46" y="-13.8" font-family="Times,serif" font-size="14.00" fill="#000000">F2</text>
</g>
<!-- CL&#45;&gt;F2 -->
<g id="edge8" class="edge">
<title>CL-&gt;F2</title>
<path fill="none" stroke="#000000" d="M43.757,-71.8314C44.0779,-64.131 44.4594,-54.9743 44.816,-46.4166"/>
<polygon fill="#000000" stroke="#000000" points="48.3133,-46.5503 45.2328,-36.4133 41.3194,-46.2589 48.3133,-46.5503"/>
</g>
<!-- F3 -->
<g id="node10" class="node">
<title>F3</title>
<ellipse fill="none" stroke="#000000" cx="264" cy="-18" rx="27" ry="18"/>
<text text-anchor="middle" x="264" y="-13.8" font-family="Times,serif" font-size="14.00" fill="#000000">F3</text>
</g>
<!-- CH&#45;&gt;F3 -->
<g id="edge9" class="edge">
<title>CH-&gt;F3</title>
<path fill="none" stroke="#000000" d="M133.5184,-76.4123C139.8311,-72.121 147.0523,-67.5718 154,-64 185.2737,-47.9221 195.7877,-50.1036 228,-36 229.7763,-35.2223 231.5905,-34.4017 233.4135,-33.5566"/>
<polygon fill="#000000" stroke="#000000" points="234.9655,-36.6941 242.4675,-29.2128 231.9375,-30.3828 234.9655,-36.6941"/>
</g>
<!-- F4 -->
<g id="node11" class="node">
<title>F4</title>
<ellipse fill="none" stroke="#000000" cx="119" cy="-18" rx="27" ry="18"/>
<text text-anchor="middle" x="119" y="-13.8" font-family="Times,serif" font-size="14.00" fill="#000000">F4</text>
</g>
<!-- CH&#45;&gt;F4 -->
<g id="edge10" class="edge">
<title>CH-&gt;F4</title>
<path fill="none" stroke="#000000" d="M116.0094,-71.8314C116.4372,-64.131 116.9459,-54.9743 117.4213,-46.4166"/>
<polygon fill="#000000" stroke="#000000" points="120.9169,-46.592 117.977,-36.4133 113.9276,-46.2037 120.9169,-46.592"/>
</g>
<!-- EL -->
<g id="node6" class="node">
<title>EL</title>
<ellipse fill="none" stroke="#000000" cx="265" cy="-90" rx="27" ry="18"/>
<text text-anchor="middle" x="265" y="-85.8" font-family="Times,serif" font-size="14.00" fill="#000000">EL</text>
</g>
<!-- D&#45;&gt;EL -->
<g id="edge5" class="edge">
<title>D-&gt;EL</title>
<path fill="none" stroke="#000000" d="M208.2693,-146.7307C218.197,-136.803 231.3153,-123.6847 242.4363,-112.5637"/>
<polygon fill="#000000" stroke="#000000" points="245.1564,-114.7933 249.7527,-105.2473 240.2067,-109.8436 245.1564,-114.7933"/>
</g>
<!-- EH -->
<g id="node7" class="node">
<title>EH</title>
<ellipse fill="none" stroke="#000000" cx="193" cy="-90" rx="27" ry="18"/>
<text text-anchor="middle" x="193" y="-85.8" font-family="Times,serif" font-size="14.00" fill="#000000">EH</text>
</g>
<!-- D&#45;&gt;EH -->
<g id="edge6" class="edge">
<title>D-&gt;EH</title>
<path fill="none" stroke="#000000" d="M193,-143.8314C193,-136.131 193,-126.9743 193,-118.4166"/>
<polygon fill="#000000" stroke="#000000" points="196.5001,-118.4132 193,-108.4133 189.5001,-118.4133 196.5001,-118.4132"/>
</g>
<!-- EL&#45;&gt;F1 -->
<g id="edge11" class="edge">
<title>EL-&gt;F1</title>
<path fill="none" stroke="#000000" d="M249.8744,-75.0816C239.6655,-65.0125 226.0122,-51.5463 214.5307,-40.2221"/>
<polygon fill="#000000" stroke="#000000" points="216.9349,-37.6773 207.3574,-33.147 212.0194,-42.6611 216.9349,-37.6773"/>
</g>
<!-- EL&#45;&gt;F3 -->
<g id="edge13" class="edge">
<title>EL-&gt;F3</title>
<path fill="none" stroke="#000000" d="M264.7477,-71.8314C264.6407,-64.131 264.5135,-54.9743 264.3947,-46.4166"/>
<polygon fill="#000000" stroke="#000000" points="267.8944,-46.3637 264.2557,-36.4133 260.8951,-46.4609 267.8944,-46.3637"/>
</g>
<!-- EH&#45;&gt;F2 -->
<g id="edge12" class="edge">
<title>EH-&gt;F2</title>
<path fill="none" stroke="#000000" d="M174.4523,-76.4688C168.1377,-72.1813 160.9226,-67.62 154,-64 123.941,-48.2813 114.0522,-49.652 83,-36 80.981,-35.1123 78.9108,-34.177 76.8311,-33.2183"/>
<polygon fill="#000000" stroke="#000000" points="78.3189,-30.0503 67.7821,-28.942 75.3279,-36.3792 78.3189,-30.0503"/>
</g>
<!-- EH&#45;&gt;F4 -->
<g id="edge14" class="edge">
<title>EH-&gt;F4</title>
<path fill="none" stroke="#000000" d="M177.6672,-75.0816C167.249,-64.945 153.2922,-51.3654 141.6053,-39.9944"/>
<polygon fill="#000000" stroke="#000000" points="143.9212,-37.3644 134.3132,-32.8993 139.0397,-42.3815 143.9212,-37.3644"/>
</g>
</g>
</svg>